<svg xmlns="http://www.w3.org/2000/svg" width="85" height="85" viewBox="0 0 85 85">
  <g id="Grupo_3402" data-name="Grupo 3402" transform="translate(0)">
    <g id="Elipse_159" data-name="Elipse 159" transform="translate(0)" fill="none" stroke="#fff" stroke-width="2">
      <circle cx="42.5" cy="42.5" r="42.5" stroke="none"/>
      <circle cx="42.5" cy="42.5" r="41.5" fill="none"/>
    </g>
    <path id="Caminho_903" data-name="Caminho 903" d="M17.2-495.856a2.431,2.431,0,0,0-1.128,1.166,1.67,1.67,0,0,0,.48,1.822c.488.5.762.572,1.967.572h.953l.046.282c.023.16.595,4.7,1.266,10.079.983,7.853,1.25,9.858,1.38,10.155a2.87,2.87,0,0,0,1.327,1.258c.374.137.7.145,11.512.145H46.136l.358-.168a2.544,2.544,0,0,0,1.22-1.227c.107-.236.976-3.576,1.929-7.41,1.891-7.57,1.837-7.3,1.433-7.784s.534-.45-13.974-.45c-9.69,0-13.265-.023-13.265-.084,0-.252-.93-6.869-1.006-7.159a2.167,2.167,0,0,0-1.174-1.2A27.125,27.125,0,0,0,17.2-495.856Z" transform="translate(9.261 521.102)" fill="#fff"/>
    <path id="Caminho_904" data-name="Caminho 904" d="M114.816-127.866a3.693,3.693,0,0,0-2.638,4.414,3.681,3.681,0,0,0,4.422,2.668,3.7,3.7,0,0,0,2.729-3.057A3.663,3.663,0,0,0,114.816-127.866Z" transform="translate(-79.501 181.19)" fill="#fff"/>
    <path id="Caminho_905" data-name="Caminho 905" d="M306.816-127.866a3.693,3.693,0,0,0-2.638,4.414,3.681,3.681,0,0,0,4.422,2.668,3.7,3.7,0,0,0,2.729-3.057A3.663,3.663,0,0,0,306.816-127.866Z" transform="translate(-256.863 181.19)" fill="#fff"/>
  </g>
</svg>
