<svg id="Grupo_3400" data-name="Grupo 3400" xmlns="http://www.w3.org/2000/svg" width="85" height="85" viewBox="0 0 85 85">
  <g id="Caminho_907" data-name="Caminho 907" fill="none">
    <path d="M42.5,0A42.5,42.5,0,1,1,0,42.5,42.5,42.5,0,0,1,42.5,0Z" stroke="none"/>
    <path d="M 42.5 2 C 37.03165054321289 2 31.72793579101562 3.070533752441406 26.73618698120117 5.181877136230469 C 21.91371154785156 7.221603393554688 17.582275390625 10.14207458496094 13.86217498779297 13.86217498779297 C 10.14207458496094 17.582275390625 7.221603393554688 21.91371154785156 5.181877136230469 26.73618698120117 C 3.070533752441406 31.72793579101562 2 37.03165054321289 2 42.5 C 2 47.96834945678711 3.070533752441406 53.27206420898438 5.181877136230469 58.26381301879883 C 7.221603393554688 63.08628845214844 10.14207458496094 67.417724609375 13.86217498779297 71.13782501220703 C 17.582275390625 74.85792541503906 21.91371154785156 77.77839660644531 26.73618698120117 79.81812286376953 C 31.72793579101562 81.92945861816406 37.03165054321289 83 42.5 83 C 47.96834945678711 83 53.27206420898438 81.92945861816406 58.26381301879883 79.81812286376953 C 63.08628845214844 77.77839660644531 67.417724609375 74.85792541503906 71.13782501220703 71.13782501220703 C 74.85792541503906 67.417724609375 77.77839660644531 63.08628845214844 79.81812286376953 58.26381301879883 C 81.92945861816406 53.27206420898438 83 47.96834945678711 83 42.5 C 83 37.03165054321289 81.92945861816406 31.72793579101562 79.81812286376953 26.73618698120117 C 77.77839660644531 21.91371154785156 74.85792541503906 17.582275390625 71.13782501220703 13.86217498779297 C 67.417724609375 10.14207458496094 63.08628845214844 7.221603393554688 58.26381301879883 5.181877136230469 C 53.27206420898438 3.070533752441406 47.96834945678711 2 42.5 2 M 42.5 0 C 65.97209930419922 0 85 19.02790069580078 85 42.5 C 85 65.97209930419922 65.97209930419922 85 42.5 85 C 19.02790069580078 85 0 65.97209930419922 0 42.5 C 0 19.02790069580078 19.02790069580078 0 42.5 0 Z" stroke="none" fill="#fff"/>
  </g>
  <path id="Caminho_901" data-name="Caminho 901" d="M6.582-407.752c-.8.413-.92.837-.92,3.291v2.123H4.423a3.435,3.435,0,0,0-1.71.236,1.862,1.862,0,0,0-.944,1.533,1.862,1.862,0,0,0,.944,1.533c.436.224.684.236,5.3.236,4.069,0,4.919.024,5.3.177a1.706,1.706,0,0,1,.106,2.937c-.33.248-.472.248-6.252.307-5.379.059-5.957.083-6.3.271a1.958,1.958,0,0,0-.861,1.5,1.862,1.862,0,0,0,.944,1.533c.448.224.684.236,8.811.236h8.351l.46.271a1.711,1.711,0,0,1,0,3l-.46.271H9.755c-8.127,0-8.363.012-8.811.236A1.862,1.862,0,0,0,0-386.532,1.862,1.862,0,0,0,.944-385c.413.212.7.236,2.6.236H5.662v2.831c0,4.152,0,4.152,3.279,4.246l2.041.059.26.767a6.115,6.115,0,0,0,1.616,2.6,6.749,6.749,0,0,0,9.554,0,6.115,6.115,0,0,0,1.616-2.6l.26-.767H42.24l.26.767a6.115,6.115,0,0,0,1.616,2.6,6.749,6.749,0,0,0,9.554,0,6.115,6.115,0,0,0,1.616-2.6l.259-.767,1.8-.059c2.076-.071,2.418-.189,2.807-.944.224-.448.236-.684.236-6.346,0-6.393-.024-6.629-.672-7.844A5.8,5.8,0,0,0,57.4-394.9c-1.474-.708-1.569-.72-9.377-.72H40.907l-.472-.26c-.932-.531-.92-.425-.92-6.641V-408H23.273C7.325-407.988,7.007-407.988,6.582-407.752Zm12.409,25.761a3.531,3.531,0,0,1,1.887,2.949A3.543,3.543,0,0,1,19-376.093a3.426,3.426,0,0,1-4.294-1.522,3.851,3.851,0,0,1,0-2.855,4.014,4.014,0,0,1,1.911-1.64A3.838,3.838,0,0,1,18.991-381.991Zm31.258,0a3.531,3.531,0,0,1,1.887,2.949,3.543,3.543,0,0,1-1.875,2.949,3.426,3.426,0,0,1-4.294-1.522,3.851,3.851,0,0,1,0-2.855,4.014,4.014,0,0,1,1.911-1.64A3.838,3.838,0,0,1,50.249-381.991Z" transform="translate(12.244 432.328)" fill="#fff"/>
  <path id="Caminho_902" data-name="Caminho 902" d="M365-400.754v4.246h4.836c2.666,0,4.836-.035,4.836-.071a31.083,31.083,0,0,0-2.17-3.409,12.155,12.155,0,0,0-4.506-3.94A17.717,17.717,0,0,0,365.047-405C365.024-405,365-403.089,365-400.754Z" transform="translate(-309.703 429.682)" fill="#fff"/>
</svg>
