<svg xmlns="http://www.w3.org/2000/svg" width="85" height="85" viewBox="0 0 85 85">
  <g id="Grupo_3404" data-name="Grupo 3404" transform="translate(0.402)">
    <g id="Elipse_159" data-name="Elipse 159" transform="translate(-0.402)" fill="none" stroke="#000" stroke-width="2">
      <circle cx="42.5" cy="42.5" r="42.5" stroke="none"/>
      <circle cx="42.5" cy="42.5" r="41.5" fill="none"/>
    </g>
    <path id="Caminho_906" data-name="Caminho 906" d="M-4.873-5.15h2.566V-8.4c6.335-.281,9.783-4.089,9.783-8.42,0-6.214-5.493-7.377-9.783-8.58v-6.214A3.1,3.1,0,0,1-.262-28.805H7.075c-.361-5.092-3.889-7.9-9.382-8.339v-3.248H-4.873v3.248c-5.453.361-9.662,3.328-9.662,8.339,0,6.295,5.372,7.5,9.662,8.62v6.335A3.267,3.267,0,0,1-7.2-16.938h-7.3c.2,5.172,4.17,8.019,9.622,8.5ZM.3-16.577A2.86,2.86,0,0,1-2.307-13.73v-5.693C-.743-18.822.3-18.02.3-16.577ZM-7.278-29.126a2.553,2.553,0,0,1,2.406-2.686v5.573C-6.316-26.881-7.278-27.723-7.278-29.126Z" transform="translate(46.166 65.548)" stroke="#000" stroke-width="1"/>
  </g>
</svg>
