<svg id="Grupo_3284" data-name="Grupo 3284" xmlns="http://www.w3.org/2000/svg" width="44" height="44" viewBox="0 0 44 44">
  <g id="Elipse_157" data-name="Elipse 157" fill="none" stroke="#707070" stroke-width="1">
    <circle cx="22" cy="22" r="22" stroke="none"/>
    <circle cx="22" cy="22" r="21.5" fill="none"/>
  </g>
  <g id="Caminho_900" data-name="Caminho 900" transform="translate(9.066 13.271)" fill="none">
    <path d="M13.049,23.9C6.033,19.128,2.353,14.787.844,11.153-3.2,1.416,8.349-3.24,13.049,2.508,17.75-3.24,29.3,1.416,25.254,11.153,23.745,14.787,20.065,19.128,13.049,23.9Z" stroke="none"/>
    <path d="M 13.0490779876709 22.68693351745605 C 16.06573295593262 20.59061622619629 18.56498146057129 18.48405838012695 20.48456764221191 16.41909027099609 C 22.28379821777344 14.48359107971191 23.57790756225586 12.58293056488037 24.33089828491211 10.77002048492432 C 25.42983818054199 8.123291015625 25.35212707519531 5.737771034240723 24.10616874694824 3.871340990066528 C 22.92383766174316 2.10024094581604 20.77739715576172 1.000010967254639 18.50446891784668 1.000010967254639 C 16.6146183013916 1.000010967254639 14.95210838317871 1.76029098033905 13.82319831848145 3.140810966491699 L 13.0490779876709 4.087460994720459 L 12.27495765686035 3.140810966491699 C 11.14603805541992 1.76029098033905 9.483537673950195 1.000010967254639 7.593688011169434 1.000010967254639 C 5.320998191833496 1.000010967254639 3.17464804649353 2.100321054458618 1.99223804473877 3.871541023254395 C 0.7462080121040344 5.738070964813232 0.6684079766273499 8.123531341552734 1.767207980155945 10.76991081237793 C 2.520247936248779 12.58294105529785 3.814357995986938 14.48360061645508 5.613587856292725 16.41909027099609 C 7.533174991607666 18.48405838012695 10.03242301940918 20.59061622619629 13.0490779876709 22.68693351745605 M 13.0490779876709 23.90042114257812 C 6.032668113708496 19.1282901763916 2.352848052978516 14.78693103790283 0.8436979651451111 11.15349102020264 C -3.19923210144043 1.416321277618408 8.348589897155762 -3.240289211273193 13.0490779876709 2.507771015167236 C 17.74955749511719 -3.240287780761719 29.29738998413086 1.416319489479065 25.25445747375488 11.15349102020264 C 23.74530792236328 14.78693103790283 20.06547737121582 19.1282901763916 13.0490779876709 23.90042114257812 Z" stroke="none" fill="#707070"/>
  </g>
</svg>
