<svg xmlns="http://www.w3.org/2000/svg" width="24" height="24" viewBox="0 0 24 24">
  <g id="Grupo_78" data-name="Grupo 78" transform="translate(-1265 -5909.5)">
    <g id="Elipse_7" data-name="Elipse 7" transform="translate(1265 5909.5)" fill="none" stroke="#fff" stroke-width="1">
      <circle cx="12" cy="12" r="12" stroke="none"/>
      <circle cx="12" cy="12" r="11.5" fill="none"/>
    </g>
    <path id="Icon_simple-instagram" data-name="Icon simple-instagram" d="M5.5,0C4.006,0,3.819.007,3.233.033A4.056,4.056,0,0,0,1.9.289,2.693,2.693,0,0,0,.923.923,2.684,2.684,0,0,0,.289,1.9,4.044,4.044,0,0,0,.033,3.233C.005,3.819,0,4.006,0,5.5S.007,7.181.033,7.767A4.058,4.058,0,0,0,.289,9.1a2.7,2.7,0,0,0,.634.974,2.69,2.69,0,0,0,.974.634,4.061,4.061,0,0,0,1.335.256c.587.027.773.033,2.267.033s1.681-.007,2.267-.033A4.07,4.07,0,0,0,9.1,10.711,2.811,2.811,0,0,0,10.711,9.1a4.058,4.058,0,0,0,.256-1.335C10.995,7.181,11,6.994,11,5.5s-.007-1.681-.033-2.267A4.067,4.067,0,0,0,10.711,1.9a2.7,2.7,0,0,0-.634-.974A2.68,2.68,0,0,0,9.1.289,4.046,4.046,0,0,0,7.767.033C7.181.005,6.994,0,5.5,0Zm0,.99c1.468,0,1.643.007,2.223.033a3.03,3.03,0,0,1,1.021.19A1.81,1.81,0,0,1,9.788,2.256a3.037,3.037,0,0,1,.189,1.021c.026.58.032.754.032,2.223S10,7.143,9.975,7.723a3.1,3.1,0,0,1-.193,1.021,1.746,1.746,0,0,1-.412.633,1.716,1.716,0,0,1-.632.411,3.059,3.059,0,0,1-1.024.189c-.584.026-.756.032-2.227.032S3.843,10,3.259,9.975a3.119,3.119,0,0,1-1.025-.193A1.7,1.7,0,0,1,1.6,9.37a1.67,1.67,0,0,1-.412-.632A3.121,3.121,0,0,1,1,7.713C.977,7.136.969,6.957.969,5.493S.977,3.85,1,3.265A3.118,3.118,0,0,1,1.19,2.241,1.63,1.63,0,0,1,1.6,1.608,1.627,1.627,0,0,1,2.234,1.2,3.044,3.044,0,0,1,3.252,1C3.837.983,4.009.976,5.479.976L5.5.99Zm0,1.686A2.824,2.824,0,1,0,8.324,5.5,2.824,2.824,0,0,0,5.5,2.676Zm0,4.658A1.833,1.833,0,1,1,7.333,5.5,1.833,1.833,0,0,1,5.5,7.333ZM9.1,2.564a.66.66,0,1,1-.66-.66A.66.66,0,0,1,9.1,2.564Z" transform="translate(1272 5916)" fill="#fff"/>
  </g>
</svg>
