<svg xmlns="http://www.w3.org/2000/svg" width="24" height="24" viewBox="0 0 24 24">
  <g id="Grupo_75" data-name="Grupo 75" transform="translate(-1138 -5910)">
    <g id="Elipse_8" data-name="Elipse 8" transform="translate(1138 5910)" fill="none" stroke="#fff" stroke-width="1">
      <circle cx="12" cy="12" r="12" stroke="none"/>
      <circle cx="12" cy="12" r="11.5" fill="none"/>
    </g>
    <path id="Icon_awesome-twitter" data-name="Icon awesome-twitter" d="M12.152,6.122c.009.12.009.241.009.361a7.844,7.844,0,0,1-7.9,7.9A7.844,7.844,0,0,1,0,13.135a5.742,5.742,0,0,0,.67.034,5.559,5.559,0,0,0,3.446-1.186,2.781,2.781,0,0,1-2.6-1.925,3.5,3.5,0,0,0,.524.043,2.936,2.936,0,0,0,.73-.095A2.776,2.776,0,0,1,.55,7.282V7.248A2.8,2.8,0,0,0,1.8,7.6,2.78,2.78,0,0,1,.945,3.888a7.89,7.89,0,0,0,5.724,2.9A3.134,3.134,0,0,1,6.6,6.157a2.778,2.778,0,0,1,4.8-1.9,5.465,5.465,0,0,0,1.762-.67,2.768,2.768,0,0,1-1.22,1.53,5.565,5.565,0,0,0,1.6-.43,5.967,5.967,0,0,1-1.392,1.435Z" transform="translate(1143 5912.619)" fill="#fff"/>
  </g>
</svg>
